<?xml version="1.0"?>
<svg xmlns="http://www.w3.org/2000/svg" xmlns:xlink="http://www.w3.org/1999/xlink" xmlns:svgjs="http://svgjs.com/svgjs" version="1.1" width="512" height="512" x="0" y="0" viewBox="0 0 24 24" style="enable-background:new 0 0 512 512" xml:space="preserve" class=""><g><path xmlns="http://www.w3.org/2000/svg" d="m17.5 24c-3.584 0-6.5-2.916-6.5-6.5s2.916-6.5 6.5-6.5 6.5 2.916 6.5 6.5-2.916 6.5-6.5 6.5zm0-12c-3.033 0-5.5 2.467-5.5 5.5s2.467 5.5 5.5 5.5 5.5-2.467 5.5-5.5-2.467-5.5-5.5-5.5z" fill="#c4c4c4" data-original="#000000" style="" class=""/><path xmlns="http://www.w3.org/2000/svg" d="m16.5 20c-.132 0-.26-.053-.354-.146l-2-2c-.195-.195-.195-.512 0-.707s.512-.195.707 0l1.622 1.622 3.148-3.598c.182-.209.498-.23.706-.047.208.182.229.498.047.706l-3.5 4c-.091.104-.222.166-.36.17-.005 0-.011 0-.016 0z" fill="#c4c4c4" data-original="#000000" style="" class=""/><path xmlns="http://www.w3.org/2000/svg" d="m10.007 10.5c-.184 0-.36-.101-.448-.276-.123-.247-.023-.548.224-.671l9.494-4.75c.154-.078.338-.07.486.022.147.091.237.252.237.425v4.25c0 .276-.224.5-.5.5s-.5-.224-.5-.5v-3.441l-8.77 4.388c-.072.036-.148.053-.223.053z" fill="#c4c4c4" data-original="#000000" style="" class=""/><path xmlns="http://www.w3.org/2000/svg" d="m9.493 20c-.082 0-.166-.02-.243-.063l-8.994-5c-.157-.088-.256-.255-.256-.437v-9.25c0-.173.09-.334.237-.425.147-.092.333-.1.486-.022l9.494 4.75c.247.124.347.424.224.671s-.424.347-.671.224l-8.77-4.389v8.147l8.737 4.857c.241.134.328.438.194.68-.092.164-.262.257-.438.257z" fill="#c4c4c4" data-original="#000000" style="" class=""/><path xmlns="http://www.w3.org/2000/svg" d="m19.5 5.75c-.075 0-.151-.017-.223-.053l-9.283-4.638-9.27 4.638c-.247.122-.548.024-.671-.223s-.024-.548.223-.671l9.494-4.75c.141-.07.307-.07.447 0l9.506 4.75c.247.124.347.424.224.671-.087.175-.264.276-.447.276z" fill="#c4c4c4" data-original="#000000" style="" class=""/><path xmlns="http://www.w3.org/2000/svg" d="m5.043 11.739c-.276 0-.5-.224-.5-.5v-3.718c0-.189.107-.362.276-.447l9.494-4.75c.247-.123.547-.023.671.224s.023.547-.224.671l-9.217 4.612v3.409c0 .276-.223.499-.5.499z" fill="#c4c4c4" data-original="#000000" style="" class=""/></g></svg>
