<svg xmlns="http://www.w3.org/2000/svg" width="19.471" height="25.985" viewBox="0 0 19.471 25.985">
  <g id="noun_client_3321097" transform="translate(504.736 -132.007)">
    <g id="Group_44" data-name="Group 44" transform="translate(-516.313 127.262)">
      <path id="Path_55" data-name="Path 55" d="M21.313,15.2A5.225,5.225,0,1,0,16.088,9.97,5.225,5.225,0,0,0,21.313,15.2Zm0-9.02a3.8,3.8,0,1,1-3.8,3.8A3.8,3.8,0,0,1,21.313,6.176Zm6.16,10.317H26.138a.715.715,0,0,0-.6.32l-2.66,4.023L22.106,18.9l.773-1.335a.715.715,0,0,0-.62-1.073H20.366a.715.715,0,0,0-.62,1.073l.773,1.335-.774,1.935-2.662-4.023a.715.715,0,0,0-.6-.32H15.152a3.579,3.579,0,0,0-3.575,3.575v9.947a.715.715,0,1,0,1.43,0V20.068a2.145,2.145,0,0,1,2.145-2.145h.95L20.717,24.9h0a.69.69,0,0,0,.091.111.706.706,0,0,0,.235.156.69.69,0,0,0,.078.024c.019.005.036.012.055.016a.591.591,0,0,0,.077.008c.021,0,.041.005.062.006a.526.526,0,0,0,.061-.006.606.606,0,0,0,.077-.008c.018,0,.034-.01.051-.015a.719.719,0,0,0,.081-.025.675.675,0,0,0,.1-.053l.022-.012h0a.69.69,0,0,0,.111-.091.718.718,0,0,0,.091-.111h0l4.615-6.975h.949a2.145,2.145,0,0,1,2.145,2.145v9.947a.715.715,0,0,0,1.43,0V20.068A3.579,3.579,0,0,0,27.473,16.493Zm-6.16,4.276.608,1.519-.608.919-.608-.919ZM18.75,23.836a.715.715,0,0,1-.715.715H15.571a.715.715,0,1,1,0-1.43h2.464A.715.715,0,0,1,18.75,23.836Z" fill="#ccc"/>
    </g>
  </g>
</svg>
