<svg id="home_12_" data-name="home (12)" xmlns="http://www.w3.org/2000/svg" width="29.313" height="26" viewBox="0 0 29.313 26">
  <g id="Group_31" data-name="Group 31" transform="translate(3.245 11.726)">
    <g id="Group_30" data-name="Group 30">
      <path id="Path_45" data-name="Path 45" d="M82.812,211.786v12.551H77.529v-5.428a.915.915,0,0,0-.96-.862H69.813a.915.915,0,0,0-.96.862v5.428H63.6V211.786H61.681V225.2a.915.915,0,0,0,.96.862h7.172a.915.915,0,0,0,.96-.862V219.77h4.834V225.2a.915.915,0,0,0,.96.862h7.2a.915.915,0,0,0,.96-.862V211.786Z" transform="translate(-61.681 -211.786)" fill="#c4c4c4"/>
    </g>
  </g>
  <g id="Group_33" data-name="Group 33" transform="translate(0 0)">
    <g id="Group_32" data-name="Group 32">
      <path id="Path_46" data-name="Path 46" d="M29.016,40.852,15.422,29.163a1,1,0,0,0-1.275-.005L.3,40.847a.813.813,0,0,0-.056,1.217.973.973,0,0,0,.691.279.982.982,0,0,0,.634-.227l13.2-11.149L27.735,42.111a1,1,0,0,0,1.325-.041A.813.813,0,0,0,29.016,40.852Z" transform="translate(0 -28.931)" fill="#c4c4c4"/>
    </g>
  </g>
</svg>
