<svg xmlns="http://www.w3.org/2000/svg" width="25.065" height="25.989" viewBox="0 0 25.065 25.989">
  <g id="noun_product_3407440" transform="translate(-4.2 -2.475)">
    <g id="Group_43" data-name="Group 43" transform="translate(4.2 2.475)">
      <path id="Path_52" data-name="Path 52" d="M16.514,2.537,4.5,8.119a.506.506,0,0,0-.3.465V22.375a.506.506,0,0,0,.3.465l12.013,5.582a.6.6,0,0,0,.438,0L28.964,22.84a.506.506,0,0,0,.3-.465V8.584a.506.506,0,0,0-.3-.465L16.951,2.537A.42.42,0,0,0,16.514,2.537Zm.219,10.836L12.6,11.457,22.643,6.805l4.132,1.915Zm4.159-7.388L10.849,10.636,6.69,8.721,16.732,4.069ZM5.678,9.87,10.247,12v4.05a.739.739,0,0,0,1.478,0V12.688l4.269,1.97v11.9L5.678,21.773ZM17.471,26.562v-11.9L27.787,9.87v11.9Z" transform="translate(-4.2 -2.475)" fill="#c4c4c4"/>
      <path id="Path_53" data-name="Path 53" d="M65.648,46.575a.737.737,0,0,0-.711-.055l-5.2,2.408a.711.711,0,0,0-.438.657v3.53a.8.8,0,0,0,.328.629.66.66,0,0,0,.41.109.552.552,0,0,0,.3-.082l5.2-2.408a.711.711,0,0,0,.438-.657v-3.53A.634.634,0,0,0,65.648,46.575Zm-1.122,3.667-3.749,1.724V50.078l3.749-1.724Z" transform="translate(-44.223 -34.419)" fill="#c4c4c4"/>
    </g>
  </g>
</svg>
