<svg id="Icon_feather-settings" data-name="Icon feather-settings" xmlns="http://www.w3.org/2000/svg" width="26" height="26" viewBox="0 0 26 26">
  <path id="Path_68" data-name="Path 68" d="M22.5,18A4.5,4.5,0,1,1,18,13.5,4.5,4.5,0,0,1,22.5,18Z" transform="translate(-5 -5)" fill="none" stroke="#c4c4c4" stroke-linecap="round" stroke-linejoin="round" stroke-width="3"/>
  <path id="Path_69" data-name="Path 69" d="M20.736,16.136a1.725,1.725,0,0,0,.345,1.9l.063.063a2.092,2.092,0,1,1-2.959,2.959L18.123,21a1.739,1.739,0,0,0-2.948,1.234v.178a2.091,2.091,0,0,1-4.182,0v-.094a1.725,1.725,0,0,0-1.129-1.579,1.725,1.725,0,0,0-1.9.345l-.063.063A2.092,2.092,0,1,1,4.94,18.185L5,18.123a1.739,1.739,0,0,0-1.234-2.948H3.591a2.091,2.091,0,0,1,0-4.182h.094A1.725,1.725,0,0,0,5.264,9.864a1.725,1.725,0,0,0-.345-1.9L4.856,7.9A2.092,2.092,0,1,1,7.815,4.94L7.877,5a1.725,1.725,0,0,0,1.9.345h.084a1.725,1.725,0,0,0,1.045-1.579V3.591a2.091,2.091,0,0,1,4.182,0v.094a1.739,1.739,0,0,0,2.948,1.234l.063-.063A2.092,2.092,0,1,1,21.06,7.815L21,7.877a1.725,1.725,0,0,0-.345,1.9v.084a1.725,1.725,0,0,0,1.579,1.045h.178a2.091,2.091,0,0,1,0,4.182h-.094a1.725,1.725,0,0,0-1.579,1.045Z" fill="none" stroke="#c4c4c4" stroke-linecap="round" stroke-linejoin="round" stroke-width="3"/>
</svg>
