<svg xmlns="http://www.w3.org/2000/svg" width="27.376" height="25.935" viewBox="0 0 27.376 25.935">
  <g id="Group_35" data-name="Group 35" transform="translate(-494 -165)">
    <g id="Group_34" data-name="Group 34" transform="translate(494 165)">
      <path id="Path_48" data-name="Path 48" d="M9.2,27.773a2.161,2.161,0,1,1-2.161-2.161A2.161,2.161,0,0,1,9.2,27.773Zm18.01-2.161a2.161,2.161,0,1,0,2.161,2.161A2.161,2.161,0,0,0,27.214,25.612Zm2.161-2.882v1.441H8.484a3.606,3.606,0,0,1-3.6-3.6V7.6A2.164,2.164,0,0,0,2.72,5.441H2V4h.72a3.606,3.606,0,0,1,3.6,3.6V20.569a2.164,2.164,0,0,0,2.161,2.161H9.2V6.882h17.29V22.731Zm-4.322,0V8.322H19.29V11.2H16.408V8.322H10.645V22.731ZM14.967,19.849h5.763V16.967H14.967Z" transform="translate(-2 -4)" fill="#c4c4c4"/>
    </g>
  </g>
</svg>
